<?xml version="1.0" standalone="no"?>
<!DOCTYPE svg PUBLIC "-//W3C//DTD SVG 20010904//EN"
 "http://www.w3.org/TR/2001/REC-SVG-20010904/DTD/svg10.dtd">
<svg version="1.0" xmlns="http://www.w3.org/2000/svg"
 width="16.000000pt" height="16.000000pt" viewBox="0 0 16.000000 16.000000"
 preserveAspectRatio="xMidYMid meet">
<metadata>
Created by potrace 1.11, written by Peter Selinger 2001-2013
</metadata>
<g transform="translate(0.000000,16.000000) scale(0.005333,-0.005333)"
fill="#000000" stroke="none">
<path d="M275 2936 c-67 -21 -101 -43 -144 -92 -75 -86 -71 -6 -71 -1348 1
-985 3 -1208 14 -1239 32 -88 113 -165 199 -188 27 -7 422 -10 1229 -10 1341
0 1256 -5 1346 76 48 43 77 88 90 143 4 15 7 571 7 1237 l0 1210 -21 46 c-29
62 -87 121 -149 150 l-50 24 -1205 2 c-956 2 -1213 -1 -1245 -11z"/>
</g>
</svg>
